HIERARCHY
ROOT hip
{
  OFFSET 0 0 0
  CHANNELS 6 Xposition Yposition Zposition Zrotation Yrotation Xrotation
  JOINT abdomen
  {
    OFFSET 0 20.6881 -0.73152
    CHANNELS 3 Zrotation Xrotation Yrotation
    JOINT chest
    {
      OFFSET 0 11.7043 -0.48768
      CHANNELS 3 Zrotation Xrotation Yrotation
      JOINT neck
      {
        OFFSET 0 22.1894 -2.19456
        CHANNELS 3 Zrotation Xrotation Yrotation
        JOINT head
        {
          OFFSET -0.24384 7.07133 1.2192
          CHANNELS 3 Zrotation Xrotation Yrotation
          JOINT leftEye
          {
            OFFSET 4.14528 8.04674 8.04672
            CHANNELS 3 Zrotation Xrotation Yrotation
            End Site
            {
              OFFSET 1 0 0
            }
          }
          JOINT rightEye
          {
            OFFSET -3.6576 8.04674 8.04672
            CHANNELS 3 Zrotation Xrotation Yrotation
            End Site
            {
              OFFSET 1 0 0
            }
          }
        }
      }
      JOINT rCollar
      {
        OFFSET -2.68224 19.2634 -4.8768
        CHANNELS 3 Zrotation Xrotation Yrotation
        JOINT rShldr
        {
          OFFSET -8.77824 -1.95073 1.46304
          CHANNELS 3 Zrotation Xrotation Yrotation
          JOINT rForeArm
          {
            OFFSET -28.1742 -1.7115 0.48768
            CHANNELS 3 Zrotation Xrotation Yrotation
            JOINT rHand
            {
              OFFSET -22.5879 0.773209 7.07136
              CHANNELS 3 Zrotation Xrotation Yrotation
              JOINT rThumb1
              {
                OFFSET -1.2192 -0.487915 3.41376
                CHANNELS 3 Zrotation Xrotation Yrotation
                JOINT rThumb2
                {
                  OFFSET -3.37035 -0.52449 3.41376
                  CHANNELS 3 Zrotation Xrotation Yrotation
                  End Site
                  {
                    OFFSET -1.78271 -1.18214 1.43049
                  }
                }
              }
              JOINT rIndex1
              {
                OFFSET -7.75947 0.938293 5.60832
                CHANNELS 3 Zrotation Xrotation Yrotation
                JOINT rIndex2
                {
                  OFFSET -2.54057 -0.884171 1.56538
                  CHANNELS 3 Zrotation Xrotation Yrotation
                  End Site
                  {
                    OFFSET -1.62519 -0.234802 1.16502
                  }
                }
              }
              JOINT rMid1
              {
                OFFSET -8.24714 1.18213 3.41376
                CHANNELS 3 Zrotation Xrotation Yrotation
                JOINT rMid2
                {
                  OFFSET -3.10165 -0.590103 1.0647
                  CHANNELS 3 Zrotation Xrotation Yrotation
                  End Site
                  {
                    OFFSET -2.48547 -0.328903 0.83742
                  }
                }
              }
              JOINT rRing1
              {
                OFFSET -8.82822 0.546677 1.51678
                CHANNELS 3 Zrotation Xrotation Yrotation
                JOINT rRing2
                {
                  OFFSET -2.60934 -0.819778 -0.0198488
                  CHANNELS 3 Zrotation Xrotation Yrotation
                  End Site
                  {
                    OFFSET -2.33842 -0.294052 0.168128
                  }
                }
              }
              JOINT rPinky1
              {
                OFFSET -8.27202 -0.0477905 -0.4584
                CHANNELS 3 Zrotation Xrotation Yrotation
                JOINT rPinky2
                {
                  OFFSET -1.82734 -0.647385 -0.700984
                  CHANNELS 3 Zrotation Xrotation Yrotation
                  End Site
                  {
                    OFFSET -1.69225 -0.51767 -0.607171
                  }
                }
              }
            }
          }
        }
      }
      JOINT lCollar
      {
        OFFSET 2.68224 19.2634 -4.8768
        CHANNELS 3 Zrotation Xrotation Yrotation
        JOINT lShldr
        {
          OFFSET 8.77824 -1.95073 1.46304
          CHANNELS 3 Zrotation Xrotation Yrotation
          JOINT lForeArm
          {
            OFFSET 28.1742 -1.7115 0.48768
            CHANNELS 3 Zrotation Xrotation Yrotation
            JOINT lHand
            {
              OFFSET 22.5879 0.773209 7.07136
              CHANNELS 3 Zrotation Xrotation Yrotation
              JOINT lThumb1
              {
                OFFSET 1.2192 -0.487915 3.41376
                CHANNELS 3 Zrotation Xrotation Yrotation
                JOINT lThumb2
                {
                  OFFSET 3.37035 -0.52449 3.41376
                  CHANNELS 3 Zrotation Xrotation Yrotation
                  End Site
                  {
                    OFFSET 1.78271 -1.18214 1.43049
                  }
                }
              }
              JOINT lIndex1
              {
                OFFSET 7.75947 0.938293 5.60832
                CHANNELS 3 Zrotation Xrotation Yrotation
                JOINT lIndex2
                {
                  OFFSET 2.54057 -0.884171 1.56538
                  CHANNELS 3 Zrotation Xrotation Yrotation
                  End Site
                  {
                    OFFSET 1.62519 -0.234802 1.16502
                  }
                }
              }
              JOINT lMid1
              {
                OFFSET 8.24714 1.18213 3.41376
                CHANNELS 3 Zrotation Xrotation Yrotation
                JOINT lMid2
                {
                  OFFSET 3.10165 -0.590103 1.0647
                  CHANNELS 3 Zrotation Xrotation Yrotation
                  End Site
                  {
                    OFFSET 2.48547 -0.328903 0.83742
                  }
                }
              }
              JOINT lRing1
              {
                OFFSET 8.82822 0.546677 1.51678
                CHANNELS 3 Zrotation Xrotation Yrotation
                JOINT lRing2
                {
                  OFFSET 2.60934 -0.819778 -0.0198488
                  CHANNELS 3 Zrotation Xrotation Yrotation
                  End Site
                  {
                    OFFSET 2.33842 -0.294052 0.168128
                  }
                }
              }
              JOINT lPinky1
              {
                OFFSET 8.27202 -0.0477905 -0.4584
                CHANNELS 3 Zrotation Xrotation Yrotation
                JOINT lPinky2
                {
                  OFFSET 1.82734 -0.647385 -0.700984
                  CHANNELS 3 Zrotation Xrotation Yrotation
                  End Site
                  {
                    OFFSET 1.69225 -0.51767 -0.607171
                  }
                }
              }
            }
          }
        }
      }
    }
  }
  JOINT rButtock
  {
    OFFSET -8.77824 4.35084 1.2192
    CHANNELS 3 Zrotation Xrotation Yrotation
    JOINT rThigh
    {
      OFFSET 0 -1.70687 -2.19456
      CHANNELS 3 Zrotation Xrotation Yrotation
      JOINT rShin
      {
        OFFSET 0 -36.8199 0.73152
        CHANNELS 3 Zrotation Xrotation Yrotation
        JOINT rFoot
        {
          OFFSET 0.73152 -45.1104 -5.12064
          CHANNELS 3 Zrotation Xrotation Yrotation
          End Site
          {
            OFFSET -1.1221 -3.69964 12.103
          }
        }
      }
    }
  }
  JOINT lButtock
  {
    OFFSET 8.77824 4.35084 1.2192
    CHANNELS 3 Zrotation Xrotation Yrotation
    JOINT lThigh
    {
      OFFSET 0 -1.70687 -2.19456
      CHANNELS 3 Zrotation Xrotation Yrotation
      JOINT lShin
      {
        OFFSET 0 -36.8199 0.73152
        CHANNELS 3 Zrotation Xrotation Yrotation
        JOINT lFoot
        {
          OFFSET -0.73152 -45.1104 -5.12064
          CHANNELS 3 Zrotation Xrotation Yrotation
          End Site
          {
            OFFSET 1.1221 -3.69964 12.103
          }
        }
      }
    }
  }
}
MOTION
Frames:	4
Frame Time:	0.00833333
52.7407 85.5269 138.747 0.0 0.0 0.0 2.34099 -0.00222389 0.0637209 0.646591 0.00595031 0.111937 -3.0921e-14 0.0 5.96354e-16 -9.37549e-14 9.54166e-15 1.68656e-15 -0.0 0.0 0.0 -0.0 0.0 0.0 -1.60039e-14 2.87306e-17 4.47265e-16 -3.28128e-13 4.03781e-16 5.76476e-15 -5.71501e-12 1.72167e-12 1.55847e-13 -6.52906e-11 -1.59378e-12 1.02732e-12 -1.54033e-10 2.77095e-13 2.56989e-12 -2.66019e-10 4.83444e-13 4.44562e-12 -1.54028e-10 2.79889e-13 2.55717e-12 7.73091 5.47488 0.417314 -1.54033e-10 2.77305e-13 2.56989e-12 2.90554 0.965183 0.102902 -1.54023e-10 2.77404e-13 2.5683e-12 10.2786 0.731801 0.0259123 -1.54035e-10 2.76708e-13 2.57625e-12 2.22167 -0.733487 -0.20892 -1.60015e-14 2.42657e-17 1.98785e-16 -3.32426e-13 7.01958e-16 3.77691e-15 -5.7007e-12 -1.68629e-12 1.65389e-13 -6.53163e-11 1.81836e-12 1.0146e-12 -1.5405e-10 2.84041e-13 2.56671e-12 -2.66031e-10 4.92986e-13 4.43449e-12 -1.54061e-10 2.8625e-13 2.57625e-12 -7.73091 5.47488 -0.417314 -1.54052e-10 2.8466e-13 2.56353e-12 -2.90554 0.965183 -0.102902 -1.5406e-10 2.8456e-13 2.5683e-12 -10.2786 0.731801 -0.0259123 -1.54046e-10 2.85057e-13 2.56353e-12 -2.22167 -0.733487 0.20892 -2.03217e-16 0.0 -3.88251e-19 2.21581 -8.02969 -0.231381 0.00606965 8.97361 0.152053 -0.478025 -0.951426 0.0349 2.03217e-16 0.0 3.88251e-19 1.35238 -1.92788 -0.00536329 0.00846423 -2.07867 0.0694393 0.423528 3.99898 -0.12724
53.8838 85.0007 126.564 -179.686 2.9604 177.379 2.68993 1.32131 1.19098 0.416762 -2.37056 0.471019 -1.25971 1.85977 -0.340314 1.42941 -1.62554 -0.748472 -0.0 0.0 0.0 -0.0 0.0 0.0 -1.43627e-14 -4.52645e-14 -1.80661e-14 22.3647 12.6836 -2.65036 -5.50377 -2.8238 8.21662 0.0904396 6.68048 0.916004 -2.6747e-10 2.60069e-10 -3.19561e-11 -4.62936e-10 4.45303e-10 -5.15963e-11 -2.67466e-10 2.60072e-10 -3.19662e-11 7.73091 5.47488 0.417314 -2.6747e-10 2.60068e-10 -3.1954e-11 2.90554 0.965183 0.102902 -2.67461e-10 2.6007e-10 -3.19568e-11 10.2786 0.731801 0.0259123 -2.67471e-10 2.6007e-10 -3.19495e-11 2.22167 -0.733487 -0.20892 -1.43696e-14 -4.52682e-14 -1.83169e-14 -22.3075 10.4496 2.74166 5.68019 -2.95849 -8.42354 -0.0256343 3.55297 -0.495876 5.32357e-11 1.09946e-10 -4.33673e-11 9.16004e-11 1.87326e-10 -7.71609e-11 5.32254e-11 1.09948e-10 -4.33579e-11 -7.73091 5.47488 -0.417314 5.32345e-11 1.09945e-10 -4.33656e-11 -2.90554 0.965183 -0.102902 5.3227e-11 1.09945e-10 -4.33651e-11 -10.2786 0.731801 -0.0259123 5.32401e-11 1.09945e-10 -4.33712e-11 -2.22167 -0.733487 0.20892 -2.03217e-16 0.0 -3.88251e-19 4.00687 -7.44057 3.70016 0.0299608 12.7767 0.220004 -1.3194 -4.20419 -7.39077 2.03217e-16 0.0 3.88251e-19 0.434934 -2.70862 -4.95819 -0.0074819 3.83494 -0.0932923 0.981162 -0.998315 4.75947
53.8926 85.0011 126.567 -179.681 3.0237 177.377 3.00413 2.71675 2.3886 0.205172 -4.88232 0.854001 -2.5679 3.82481 -0.701557 2.8975 -3.33594 -1.54319 -0.0 0.0 0.0 -0.0 0.0 0.0 -1.31712e-14 -9.53041e-14 -3.91979e-14 47.4147 26.0001 -5.9218 -10.4521 -5.61658 16.9681 -0.0523154 13.7223 1.92465 -3.99763e-10 5.39857e-10 -6.69165e-11 -6.92463e-10 9.24025e-10 -1.07892e-10 -3.99759e-10 5.3986e-10 -6.69238e-11 7.73091 5.47488 0.417314 -3.99762e-10 5.39856e-10 -6.69119e-11 2.90554 0.965183 0.102902 -3.99755e-10 5.3986e-10 -6.69161e-11 10.2786 0.731801 0.0259123 -3.99762e-10 5.39859e-10 -6.69095e-11 2.22167 -0.733487 -0.20892 -1.31873e-14 -9.5307e-14 -3.94525e-14 -47.0467 21.4215 5.95892 10.7497 -5.87312 -17.3999 0.0146167 7.30323 -1.02579 2.90627e-10 2.41579e-10 -9.46316e-11 5.01202e-10 4.11714e-10 -1.68347e-10 2.90617e-10 2.41581e-10 -9.46225e-11 -7.73091 5.47488 -0.417314 2.90626e-10 2.41576e-10 -9.46245e-11 -2.90554 0.965183 -0.102902 2.90619e-10 2.41575e-10 -9.46286e-11 -10.2786 0.731801 -0.0259123 2.90631e-10 2.41576e-10 -9.46362e-11 -2.22167 -0.733487 0.20892 -2.03217e-16 0.0 -3.88251e-19 5.81446 -6.78313 7.84862 0.0448782 16.7926 0.294989 -3.11913 -7.43343 -15.3365 2.03217e-16 0.0 3.88251e-19 -0.680304 -3.49657 -10.2045 0.0125551 10.0861 -0.269086 2.49842 -6.19372 9.98828
53.9017 85.0031 126.566 -179.678 3.0988 177.352 3.23136 3.96205 3.45282 0.0470916 -7.12227 1.19721 -3.71257 5.57851 -1.02526 4.16047 -4.87329 -2.25266 -0.0 0.0 0.0 -0.0 0.0 0.0 -1.10803e-14 -1.35851e-13 -5.50929e-14 71.386 37.6803 -9.81917 -14.1463 -7.77596 24.8636 -0.404272 20.0203 2.90504 -4.94345e-10 7.79652e-10 -1.01008e-10 -8.56768e-10 1.33494e-09 -1.6368e-10 -4.94342e-10 7.79655e-10 -1.01013e-10 7.73091 5.47488 0.417314 -4.94343e-10 7.79651e-10 -1.01002e-10 2.90554 0.965183 0.102902 -4.94338e-10 7.79657e-10 -1.01007e-10 10.2786 0.731801 0.0259123 -4.94343e-10 7.79657e-10 -1.01001e-10 2.22167 -0.733487 -0.20892 -1.11058e-14 -1.35853e-13 -5.53483e-14 -70.3354 31.0369 9.45143 14.5032 -8.10967 -25.5098 0.110329 10.6557 -1.51083 4.67808e-10 3.2927e-10 -1.35235e-10 8.06862e-10 5.60992e-10 -2.40352e-10 4.67797e-10 3.29272e-10 -1.35226e-10 -7.73091 5.47488 -0.417314 4.67807e-10 3.29266e-10 -1.35224e-10 -2.90554 0.965183 -0.102902 4.678e-10 3.29265e-10 -1.35232e-10 -10.2786 0.731801 -0.0259123 4.67812e-10 3.29265e-10 -1.35241e-10 -2.22167 -0.733487 0.20892 -2.03217e-16 0.0 -3.88251e-19 7.34369 -6.18192 11.5331 0.0487216 20.3827 0.366216 -5.49176 -10.006 -22.5434 2.03217e-16 0.0 3.88251e-19 -1.79957 -4.15673 -14.8872 0.0641505 15.6618 -0.434157 4.65766 -10.6472 14.7904
